<svg width="79" height="49" viewBox="0 0 79 49" fill="none" xmlns="http://www.w3.org/2000/svg">
<path d="M6.33314 42.0825C5.50974 42.0825 4.76518 41.9336 4.09946 41.6358C3.45125 41.3204 2.93444 40.8912 2.54902 40.3481C2.18112 39.7875 1.99717 39.1305 1.99717 38.3772C1.99717 36.9407 2.69793 35.8457 4.09946 35.0924C5.5185 34.3391 7.83978 33.8398 11.0633 33.5945C11.0458 33.0689 10.9231 32.5872 10.6954 32.1492C10.4852 31.7112 10.1435 31.3696 9.67052 31.1243C9.21502 30.8615 8.61062 30.7301 7.8573 30.7301C7.33173 30.7301 6.81491 30.8002 6.30686 30.9404C5.79881 31.063 5.30827 31.2382 4.83526 31.4659C4.36225 31.6937 3.91551 31.9302 3.49505 32.1755L2.52274 30.4148C2.99576 30.1345 3.53885 29.8542 4.15202 29.5739C4.76518 29.2761 5.42215 29.0396 6.12291 28.8644C6.84119 28.6892 7.56823 28.6016 8.30403 28.6016C9.49533 28.6016 10.4852 28.8206 11.2735 29.2585C12.0619 29.6965 12.6575 30.3184 13.0605 31.1243C13.4634 31.9302 13.6649 32.9025 13.6649 34.0412V41.7672H11.5363L11.3261 40.1116H11.2472C10.564 40.6372 9.79315 41.1014 8.93472 41.5044C8.07629 41.8898 7.20909 42.0825 6.33314 42.0825ZM7.06894 40.0065C7.75218 40.0065 8.42667 39.8576 9.09239 39.5597C9.75811 39.2619 10.4151 38.8415 11.0633 38.2984V35.2501C9.38146 35.3727 8.05877 35.5654 7.09522 35.8282C6.14919 36.091 5.48346 36.4238 5.09805 36.8268C4.71263 37.2122 4.51992 37.6677 4.51992 38.1933C4.51992 38.6137 4.63379 38.9641 4.86154 39.2444C5.10681 39.5072 5.42215 39.6999 5.80757 39.8225C6.19299 39.9452 6.61344 40.0065 7.06894 40.0065ZM23.7981 41.7672V31.0192H18.0431V28.9169H26.3997V41.7672H23.7981ZM24.8756 26.4205C24.3149 26.4205 23.8507 26.254 23.4828 25.9212C23.1149 25.5708 22.9309 25.1153 22.9309 24.5547C22.9309 23.9941 23.1149 23.5473 23.4828 23.2145C23.8507 22.8641 24.3149 22.6889 24.8756 22.6889C25.4362 22.6889 25.9004 22.8641 26.2683 23.2145C26.6362 23.5473 26.8202 23.9941 26.8202 24.5547C26.8202 25.1153 26.6362 25.5708 26.2683 25.9212C25.9004 26.254 25.4362 26.4205 24.8756 26.4205Z" fill="#915EFF"/>
<path d="M39.555 42.0825C38.3462 42.0825 37.1899 41.881 36.0862 41.4781C34.9825 41.0751 34.0453 40.6109 33.2744 40.0853L34.4307 38.4035C35.184 38.9291 35.9987 39.3408 36.8746 39.6386C37.7681 39.9364 38.7754 40.0853 39.8966 40.0853C40.8777 40.0853 41.6048 39.9101 42.0778 39.5597C42.5683 39.2094 42.8136 38.7977 42.8136 38.3247C42.8136 38.0969 42.761 37.8867 42.6559 37.694C42.5683 37.5013 42.3931 37.3261 42.1303 37.1684C41.8851 36.9932 41.5084 36.8268 41.0003 36.6691C40.5098 36.5114 39.8616 36.345 39.0557 36.1698C37.3564 35.8194 36.095 35.3377 35.2716 34.7245C34.4657 34.1113 34.0628 33.323 34.0628 32.3594C34.0628 31.2732 34.5271 30.3798 35.4556 29.679C36.4016 28.9607 37.7681 28.6016 39.555 28.6016C40.5711 28.6016 41.5347 28.7768 42.4457 29.1272C43.3742 29.46 44.1625 29.8454 44.8107 30.2834L43.6019 31.9127C42.9888 31.5097 42.3143 31.1944 41.5785 30.9667C40.8602 30.7214 40.1069 30.5988 39.3185 30.5988C38.6703 30.5988 38.1535 30.6776 37.7681 30.8353C37.3827 30.9754 37.1024 31.1681 36.9272 31.4134C36.752 31.6587 36.6644 31.9302 36.6644 32.228C36.6644 32.7186 36.9359 33.104 37.479 33.3843C38.0396 33.6471 38.9419 33.9099 40.1857 34.1726C41.5872 34.4705 42.6647 34.8033 43.418 35.1712C44.1888 35.5391 44.7144 35.9683 44.9947 36.4589C45.2925 36.9319 45.4414 37.5013 45.4414 38.167C45.4414 38.8853 45.2137 39.5422 44.7582 40.1379C44.3027 40.7335 43.637 41.2065 42.761 41.5569C41.9026 41.9073 40.8339 42.0825 39.555 42.0825ZM49.5832 41.7672V23.1356H52.1848V28.076L52.0271 30.9667H52.1059C52.7191 30.3184 53.4023 29.7666 54.1557 29.3111C54.909 28.8381 55.7762 28.6016 56.7572 28.6016C58.2639 28.6016 59.3676 29.0571 60.0683 29.9681C60.7691 30.8615 61.1195 32.1404 61.1195 33.8047V41.7672H58.5179V34.1464C58.5179 33.0251 58.3077 32.2017 57.8872 31.6762C57.4843 31.1331 56.801 30.8615 55.8375 30.8615C55.1542 30.8615 54.5411 31.0367 53.998 31.3871C53.4549 31.72 52.8505 32.228 52.1848 32.9113V41.7672H49.5832ZM69.3607 42.0825C68.5373 42.0825 67.7927 41.9336 67.127 41.6358C66.4788 41.3204 65.962 40.8912 65.5766 40.3481C65.2087 39.7875 65.0247 39.1305 65.0247 38.3772C65.0247 36.9407 65.7255 35.8457 67.127 35.0924C68.546 34.3391 70.8673 33.8398 74.0908 33.5945C74.0733 33.0689 73.9507 32.5872 73.7229 32.1492C73.5127 31.7112 73.1711 31.3696 72.6981 31.1243C72.2426 30.8615 71.6382 30.7301 70.8848 30.7301C70.3593 30.7301 69.8425 30.8002 69.3344 30.9404C68.8264 31.063 68.3358 31.2382 67.8628 31.4659C67.3898 31.6937 66.9431 31.9302 66.5226 32.1755L65.5503 30.4148C66.0233 30.1345 66.5664 29.8542 67.1796 29.5739C67.7927 29.2761 68.4497 29.0396 69.1505 28.8644C69.8687 28.6892 70.5958 28.6016 71.3316 28.6016C72.5229 28.6016 73.5127 28.8206 74.3011 29.2585C75.0894 29.6965 75.6851 30.3184 76.088 31.1243C76.4909 31.9302 76.6924 32.9025 76.6924 34.0412V41.7672H74.5638L74.3536 40.1116H74.2748C73.5915 40.6372 72.8207 41.1014 71.9623 41.5044C71.1038 41.8898 70.2366 42.0825 69.3607 42.0825ZM70.0965 40.0065C70.7797 40.0065 71.4542 39.8576 72.1199 39.5597C72.7857 39.2619 73.4426 38.8415 74.0908 38.2984V35.2501C72.409 35.3727 71.0863 35.5654 70.1228 35.8282C69.1767 36.091 68.511 36.4238 68.1256 36.8268C67.7402 37.2122 67.5475 37.6677 67.5475 38.1933C67.5475 38.6137 67.6613 38.9641 67.8891 39.2444C68.1344 39.5072 68.4497 39.6999 68.8351 39.8225C69.2205 39.9452 69.641 40.0065 70.0965 40.0065Z" fill="#CCD6F6"/>
<circle cx="11.2328" cy="9.91888" r="9.91888" fill="#915EFF"/>
<circle cx="10.9494" cy="10.2023" r="7.36831" fill="#C5ABFF"/>
<circle cx="36.7385" cy="9.91888" r="9.91888" fill="#915EFF"/>
<circle cx="37.0219" cy="10.2023" r="7.36831" fill="#C5ABFF"/>
<path d="M23.9857 28.9065L17.1137 20.8297H30.8577L23.9857 28.9065Z" fill="#915EFF"/>
<ellipse cx="11.1492" cy="13.6976" rx="4.14113" ry="3.50403" fill="#ECECEC"/>
<ellipse cx="37.2702" cy="13.6976" rx="4.14113" ry="3.50403" fill="#ECECEC"/>
<circle cx="9.55644" cy="14.0162" r="2.54839" fill="#915EFF"/>
<circle cx="38.8629" cy="14.0162" r="2.54839" fill="#915EFF"/>
</svg>
